<svg xmlns="http://www.w3.org/2000/svg" version="1.1" xmlns:xlink="http://www.w3.org/1999/xlink" xmlns:svgjs="http://svgjs.dev/svgjs" width="1000" height="623" viewBox="0 0 1000 623"><g transform="matrix(1,0,0,1,-0.6060606060606233,0.2522267206477409)"><svg viewBox="0 0 396 247" data-background-color="#111111" preserveAspectRatio="xMidYMid meet" height="623" width="1000" xmlns="http://www.w3.org/2000/svg" xmlns:xlink="http://www.w3.org/1999/xlink"><g id="tight-bounds" transform="matrix(1,0,0,1,0.2400000000000091,-0.09999999999999432)"><svg viewBox="0 0 395.52 247.2" height="247.2" width="395.52"><g><svg></svg></g><g><svg viewBox="0 0 395.52 247.2" height="247.2" width="395.52"><g transform="matrix(1,0,0,1,39.55199999999999,108.28047332686711)"><svg viewBox="0 0 316.416 30.63905334626576" height="30.63905334626576" width="316.416"><g><svg viewBox="0 0 316.416 30.63905334626576" height="30.63905334626576" width="316.416"><g><svg viewBox="0 0 316.416 30.63905334626576" height="30.63905334626576" width="316.416"><g><svg viewBox="0 0 316.416 30.63905334626576" height="30.63905334626576" width="316.416"><g><svg viewBox="0 0 316.416 30.63905334626576" height="30.63905334626576" width="316.416"><g><svg viewBox="0 0 316.416 30.63905334626576" height="30.63905334626576" width="316.416"><g transform="matrix(1,0,0,1,0,0)"><svg width="316.416" viewBox="4 -29.45 309.28 29.95" height="30.63905334626576" data-palette-color="#0af9f2"><path d="M14.05 0L4.5 0 4.5-25.4 4-29.4 16.1-29.4 24.9-11.9 33.9-29.4 45.35-29.4 45.35 0 35.8 0 35.8-16.85 35.25-16.85 33.15-11.45 29.5-3 20.4-3 16.6-11.45 14.55-16.85 14.05-16.85 14.05 0ZM85.8 0.5L85.8 0.5Q83.8 0.5 81.35-0.13 78.9-0.75 76.5-3.2L76.5-3.2 74.4-5.3Q72.9-6.8 71.52-7.75 70.15-8.7 68.4-9.18 66.65-9.65 64-9.65L64-9.65 63.6-9.65 63.6 0 53.85 0 53.85-25.4 53.35-29.45 76.5-29.45Q79.7-29.45 81.67-28.68 83.65-27.9 84.72-26.63 85.8-25.35 86.2-23.75 86.6-22.15 86.6-20.5L86.6-20.5 86.6-19.55Q86.6-16.55 85.07-14.18 83.55-11.8 80.25-10.8L80.25-10.8Q81.5-10.05 82.62-9.28 83.75-8.5 85.2-7.65L85.2-7.65Q86.85-6.7 88.27-6.28 89.7-5.85 90.65-5.75 91.6-5.65 91.75-5.65L91.75-5.65 90.25 0Q89.65 0.15 88.42 0.33 87.2 0.5 85.8 0.5ZM69.4-16.3L69.4-16.3Q70.65-16.3 71.82-16.35 73-16.4 73.95-16.5L73.95-16.5Q75.65-16.7 76.27-17.57 76.9-18.45 76.9-19.7L76.9-19.7 76.9-20.25Q76.9-21.35 76.27-21.95 75.65-22.55 74-22.55L74-22.55 63.6-22.55 63.6-16.5Q64.85-16.45 66.35-16.38 67.85-16.3 69.4-16.3ZM119.45 0L96.75 0 96.75-25.4 96.25-29.4 119.45-29.4Q125.5-29.4 128.52-27 131.55-24.6 131.55-19.5L131.55-19.5 131.55-9.95Q131.55-4.75 128.55-2.38 125.55 0 119.45 0L119.45 0ZM106.5-22.6L106.5-6.9 117.95-6.9Q121.8-6.9 121.84-10.45L121.84-10.45 121.84-19.1Q121.84-20.55 121-21.58 120.15-22.6 117.95-22.6L117.95-22.6 106.5-22.6ZM148.14 0L138.54 0 138.54-29.4 148.14-29.4 148.14 0ZM184.44 0L156.14 0 156.14-29.4 188.24-29.4 188.24-22.6 165.89-22.6 165.89-18.45 182.44-18.45 182.44-11.5 165.89-11.5 165.89-6.85 187.44-6.85 190.44-0.55Q190.44-0.35 189.09-0.18 187.74 0 184.44 0L184.44 0ZM220.99 0L205.09 0Q199.74 0 197.34-2.35 194.94-4.7 194.94-9.95L194.94-9.95 194.94-19.1Q194.94-24.5 197.59-26.98 200.24-29.45 205.09-29.45L205.09-29.45 221.79-29.45Q225.24-29.45 227.06-29.08 228.89-28.7 228.89-28.3L228.89-28.3 227.34-22.05Q226.09-22.2 222.46-22.38 218.84-22.55 213.34-22.55L213.34-22.55 208.69-22.55Q206.34-22.55 205.51-21.68 204.69-20.8 204.69-19L204.69-19 204.69-10.45Q204.69-8.75 205.41-7.83 206.14-6.9 208.69-6.9L208.69-6.9 212.74-6.9Q215.04-6.9 216.89-6.93 218.74-6.95 220.14-7L220.14-7 220.14-10.8 218.14-10.75 211.59-10.25 211.59-17.15 229.69-17.15 229.69-2.1 230.19-1.05Q230.19-0.65 228.09-0.33 225.99 0 220.99 0L220.99 0ZM262.74 0L246.84 0Q241.49 0 239.09-2.35 236.69-4.7 236.69-9.95L236.69-9.95 236.69-19.1Q236.69-24.5 239.34-26.98 241.99-29.45 246.84-29.45L246.84-29.45 263.54-29.45Q266.99-29.45 268.81-29.08 270.64-28.7 270.64-28.3L270.64-28.3 269.09-22.05Q267.84-22.2 264.21-22.38 260.59-22.55 255.09-22.55L255.09-22.55 250.44-22.55Q248.09-22.55 247.26-21.68 246.44-20.8 246.44-19L246.44-19 246.44-10.45Q246.44-8.75 247.16-7.83 247.89-6.9 250.44-6.9L250.44-6.9 254.49-6.9Q256.79-6.9 258.64-6.93 260.49-6.95 261.89-7L261.89-7 261.89-10.8 259.89-10.75 253.34-10.25 253.34-17.15 271.44-17.15 271.44-2.1 271.94-1.05Q271.94-0.65 269.84-0.33 267.74 0 262.74 0L262.74 0ZM303.18 0L288.58 0Q283.28 0 280.86-2.38 278.43-4.75 278.43-9.95L278.43-9.95 278.43-19.5Q278.43-24.6 280.83-27 283.23-29.4 288.58-29.4L288.58-29.4 303.18-29.4Q308.43-29.4 310.86-27 313.28-24.6 313.28-19.5L313.28-19.5 313.28-9.95Q313.28-4.75 310.83-2.38 308.38 0 303.18 0L303.18 0ZM292.03-6.8L292.03-6.8 299.78-6.8Q303.68-6.8 303.68-10.35L303.68-10.35 303.68-19.1Q303.68-22.6 299.78-22.6L299.78-22.6 292.03-22.6Q290.03-22.6 289.03-21.8 288.03-21 288.03-19.1L288.03-19.1 288.03-10.35Q288.03-8.5 289.03-7.65 290.03-6.8 292.03-6.8Z" opacity="1" transform="matrix(1,0,0,1,0,0)" fill="#ffffff" class="undefined-text-0" data-fill-palette-color="primary" id="text-0"></path></svg></g></svg></g></svg></g></svg></g></svg></g></svg></g></svg></g><g mask="url(#2eb05b6b-d5e6-4881-a950-a44479243b46)"><g transform="matrix(2.451990298114648, 0, 0, 2.451990298114648, 104.16704646194128, 1)"><svg version="1.1" xmlns="http://www.w3.org/2000/svg" xmlns:xlink="http://www.w3.org/1999/xlink" x="0" y="0" viewBox="11.008876789102223 0.12560432611174033 76.34039466634347 100.00039567388825" enable-background="new 11.008 0.125 76.341 100" xml:space="preserve" width="76.34039466634347" height="100.00039567388825" class="icon-none" data-fill-palette-color="accent" id="none"><g fill="#ff0063" data-fill-palette-color="accent"><path d="M35.79 1.333c-1.541-1.334-3.741-1.586-5.543-0.639-1.804 0.948-2.843 2.901-2.622 4.926 2.038 18.58-2.79 26.381-7.903 34.639-3.448 5.571-7.013 11.329-8.276 19.932C7.776 85.189 28.141 94.298 37.93 98.675l1.544 0.695c0.655 0.298 1.355 0.445 2.053 0.445 0.936 0 1.869-0.265 2.681-0.789 1.417-0.91 2.272-2.481 2.272-4.165 0-6.486 3.785-12.7 7.792-19.276 3.424-5.619 6.962-11.43 8.488-17.989C65.141 47.354 64.805 26.428 35.79 1.333zM53.11 55.35c-1.163 5.012-4.145 9.902-7.298 15.081-3.294 5.408-6.671 10.951-8.276 17.124C27.232 82.446 19.158 75.87 21.249 61.63c0.964-6.573 3.715-11.014 6.897-16.156 4.331-6.996 9.116-14.727 9.782-28.414C54.501 34.746 54.742 48.338 53.11 55.35z" fill="#ffffff" data-fill-palette-color="accent"></path><path d="M68.336 81.225c5.604-8.301 8.606-17.159 9.55-22.682 2.502-14.669-2.332-31.094-13.263-45.062-1.686-2.153-4.798-2.536-6.953-0.849-2.155 1.686-2.535 4.799-0.85 6.953 9.215 11.775 13.334 25.367 11.298 37.291-0.733 4.298-3.266 11.802-7.993 18.805-1.53 2.268-0.934 5.347 1.335 6.879 0.849 0.57 1.813 0.846 2.767 0.846C65.816 83.406 67.38 82.643 68.336 81.225z" fill="#ffffff" data-fill-palette-color="accent"></path><path d="M83.903 68.78c-2.605-0.834-5.394 0.603-6.226 3.21-2.905 9.075-8.87 14.877-14.319 19.354-2.115 1.735-2.42 4.858-0.685 6.972 0.979 1.192 2.399 1.81 3.831 1.81 1.108 0 2.22-0.369 3.141-1.126 6.184-5.078 13.757-12.394 17.468-23.99C87.945 72.404 86.51 69.615 83.903 68.78z" fill="#ffffff" data-fill-palette-color="accent"></path></g></svg></g></g></svg></g><defs><mask id="2eb05b6b-d5e6-4881-a950-a44479243b46"><rect width="640" height="400" fill="white"></rect><rect width="348.05760000000004" height="45.10534366181183" fill="black" x="145.97119999999998" y="177.44732816909408" id="transform-me" transform="matrix(1,0,0,1,-122.24000000000001,-76.4)"></rect></mask></defs></svg><rect width="395.52" height="247.2" fill="none" stroke="none" visibility="hidden"></rect></g></svg></g></svg>